<?xml version="1.0" encoding="UTF-8" standalone="no"?>
<svg width="79px" height="67px" viewBox="0 0 79 67" version="1.1" xmlns="http://www.w3.org/2000/svg" xmlns:xlink="http://www.w3.org/1999/xlink" xmlns:sketch="http://www.bohemiancoding.com/sketch/ns">
    <!-- Generator: Sketch 3.4.3 (16044) - http://www.bohemiancoding.com/sketch -->
    <title>arbusto</title>
    <desc>Created with Sketch.</desc>
    <defs></defs>
    <g id="Page-1" stroke="none" stroke-width="1" fill="none" fill-rule="evenodd" sketch:type="MSPage">
        <g id="Artboard-5" sketch:type="MSArtboardGroup" transform="translate(-174.000000, -327.000000)" fill="#17B270">
            <path d="M213.1875,334 C205.1355,334 198.9995,340.617 198.9995,348.741 L198.9995,356.992 L195.6595,357.278 C195.6335,357.28 191.6925,357.684 187.9785,359.859 C183.3965,362.542 180.9995,366.743 180.9995,372.347 L180.9995,372.409 C180.9995,380.517 187.5785,387.115 195.7105,387.143 L231.4415,386.068 C239.5575,386.068 246.0005,379.46 246.0005,371.336 L246.0005,371.274 C246.0005,363.15 239.6355,357 231.4625,357 L227.8995,357 L228.1605,348.912 C228.1295,340.812 221.5075,334 213.3695,334 L213.1875,334 Z M195.7815,394 L195.7295,394 C183.7735,394 173.9995,384.334 173.9995,372.409 L173.9995,372.347 C173.9995,361.966 179.9215,356.514 184.7405,353.769 C187.3205,352.297 189.0005,351.457 192.0005,350.984 L192.0005,348.741 C192.0005,336.816 201.3355,327 213.1875,327 L213.3695,327 C225.3255,327 235.0525,336.758 235.0525,348.684 L235.0505,348.825 L234.9265,349.924 C245.2165,351.616 253.0005,360.555 253.0005,371.274 L253.0005,371.336 C253.0005,383.243 243.4235,392.915 231.5345,392.945 L195.7815,394 Z" id="Fill-5" sketch:type="MSShapeGroup"></path>
        </g>
    </g>
</svg>