<?xml version="1.0" encoding="UTF-8" standalone="no"?>
<svg width="53px" height="65px" viewBox="0 0 53 65" version="1.1" xmlns="http://www.w3.org/2000/svg" xmlns:xlink="http://www.w3.org/1999/xlink" xmlns:sketch="http://www.bohemiancoding.com/sketch/ns">
    <!-- Generator: Sketch 3.4.3 (16044) - http://www.bohemiancoding.com/sketch -->
    <title>cadeado</title>
    <desc>Created with Sketch.</desc>
    <defs></defs>
    <g id="Page-1" stroke="none" stroke-width="1" fill="none" fill-rule="evenodd" sketch:type="MSPage">
        <g id="Artboard-5" sketch:type="MSArtboardGroup" transform="translate(-185.000000, -122.000000)" fill="#6E361F">
            <path d="M230,179 L193,179 L193,162 L230,162 L230,179 Z M199,142.349 C199,135.324 204.624,130 211.55,130 L211.719,130 C218.682,130 224,135.324 224,142.349 L224,154 L199,154 L199,142.349 Z M232,154 L232,142.349 C232,130.843 223.163,122 211.719,122 L211.55,122 C200.142,122 191,130.843 191,142.349 L191,154 L185,154 L185,187 L238,187 L238,154 L232,154 Z" id="Fill-1" sketch:type="MSShapeGroup"></path>
        </g>
    </g>
</svg>