<?xml version="1.0" encoding="UTF-8" standalone="no"?>
<svg width="48px" height="65px" viewBox="0 0 48 65" version="1.1" xmlns="http://www.w3.org/2000/svg" xmlns:xlink="http://www.w3.org/1999/xlink" xmlns:sketch="http://www.bohemiancoding.com/sketch/ns">
    <!-- Generator: Sketch 3.4.3 (16044) - http://www.bohemiancoding.com/sketch -->
    <title>carona</title>
    <desc>Created with Sketch.</desc>
    <defs></defs>
    <g id="Page-1" stroke="none" stroke-width="1" fill="none" fill-rule="evenodd" sketch:type="MSPage">
        <g id="Artboard-5" sketch:type="MSArtboardGroup" transform="translate(-1103.000000, -327.000000)" fill="#EC3D38">
            <path d="M1144,385 L1124,385 L1124,364.315 C1124,359.508 1127.565,355.5 1132.113,354.681 C1132.772,354.78 1133.496,354.832 1134.181,354.832 C1134.778,354.832 1135.422,354.789 1136,354.714 C1140.523,355.605 1144,359.57 1144,364.315 L1144,385 Z M1127.655,341.307 C1127.655,337.681 1130.605,334.73 1134.232,334.73 C1137.858,334.73 1140.809,337.681 1140.809,341.307 C1140.809,344.364 1138.71,347.154 1135.878,347.887 C1135.283,347.822 1134.68,348 1134.067,348 L1133.934,348 C1133.443,348 1132.959,347.814 1132.478,347.856 C1129.701,347.086 1127.655,344.325 1127.655,341.307 L1127.655,341.307 Z M1143.96,350.749 C1146.341,348.31 1147.785,344.979 1147.785,341.307 C1147.785,333.849 1141.704,327.782 1134.246,327.782 C1126.789,327.782 1120.714,333.849 1120.714,341.307 C1120.714,344.898 1122.492,348.163 1124.783,350.587 C1120.464,353.615 1118,358.639 1118,364.315 L1118,364.823 C1113,363.487 1110.786,360 1110.786,355 L1103.838,355 C1103.838,364 1110,370.452 1118,372.014 L1118,392 L1151,392 L1151,364.315 C1151,358.738 1148.187,353.792 1143.96,350.749 L1143.96,350.749 Z" id="Fill-9" sketch:type="MSShapeGroup"></path>
        </g>
    </g>
</svg>