<?xml version="1.0" encoding="UTF-8" standalone="no"?>
<svg width="68px" height="68px" viewBox="0 0 68 68" version="1.1" xmlns="http://www.w3.org/2000/svg" xmlns:xlink="http://www.w3.org/1999/xlink" xmlns:sketch="http://www.bohemiancoding.com/sketch/ns">
    <!-- Generator: Sketch 3.4.3 (16044) - http://www.bohemiancoding.com/sketch -->
    <title>relogio</title>
    <desc>Created with Sketch.</desc>
    <defs></defs>
    <g id="Page-1" stroke="none" stroke-width="1" fill="none" fill-rule="evenodd" sketch:type="MSPage">
        <g id="Artboard-5" sketch:type="MSArtboardGroup" transform="translate(-640.000000, -121.000000)" fill="#2B388A">
            <path d="M674.293,129.2734 C660.309,129.2734 648.932,140.6504 648.932,154.6344 C648.932,168.6194 660.309,179.9964 674.293,179.9964 C688.277,179.9964 699.654,168.6194 699.654,154.6344 C699.654,140.6504 688.277,129.2734 674.293,129.2734 M674.293,188.1244 C655.826,188.1244 640.804,173.1014 640.804,154.6344 C640.804,136.1694 655.826,121.1464 674.293,121.1464 C692.758,121.1464 707.781,136.1694 707.781,154.6344 C707.781,173.1014 692.758,188.1244 674.293,188.1244" id="Fill-6" sketch:type="MSShapeGroup"></path>
            <path d="M681.4375,168.6348 L671.1235,157.3698 C670.4435,156.6218 669.9995,155.6468 669.9995,154.6348 L669.9995,131.9998 L677.9995,131.9998 L677.9995,153.0628 L687.3205,163.1638 L681.4375,168.6348 Z" id="Fill-7" sketch:type="MSShapeGroup"></path>
        </g>
    </g>
</svg>