<?xml version="1.0" encoding="UTF-8" standalone="no"?>
<svg width="70px" height="70px" viewBox="0 0 70 70" version="1.1" xmlns="http://www.w3.org/2000/svg" xmlns:xlink="http://www.w3.org/1999/xlink" xmlns:sketch="http://www.bohemiancoding.com/sketch/ns">
    <!-- Generator: Sketch 3.4.3 (16044) - http://www.bohemiancoding.com/sketch -->
    <title>alvo</title>
    <desc>Created with Sketch.</desc>
    <defs></defs>
    <g id="Page-1" stroke="none" stroke-width="1" fill="none" fill-rule="evenodd" sketch:type="MSPage">
        <g id="Artboard-5" sketch:type="MSArtboardGroup" transform="translate(-1103.000000, -118.000000)" fill="#EC71AC">
            <path d="M1165.3369,154.2344 C1165.0529,161.2444 1162.1079,168.2054 1157.0439,173.0564 C1151.9939,177.8924 1145.3729,181.0004 1138.3969,181.0004 L1138.3949,181.0004 C1138.0249,181.0004 1137.6489,180.5484 1137.2779,180.5354 C1130.0759,180.2424 1123.4199,176.9274 1118.5319,171.6284 C1113.6469,166.3294 1111.1169,159.3394 1111.4089,152.1364 C1111.6929,145.1284 1114.6389,138.5454 1119.7019,133.6944 C1124.7509,128.8564 1131.3729,126.1674 1138.3519,126.1674 C1138.7209,126.1674 1139.0959,126.1684 1139.4659,126.1834 C1154.3339,126.7864 1165.9399,139.3674 1165.3369,154.2344 M1139.7739,118.5914 C1139.3009,118.5724 1138.8229,118.5634 1138.3519,118.5634 C1129.4099,118.5634 1120.9259,121.9764 1114.4579,128.1724 C1107.9729,134.3854 1104.1999,142.7554 1103.8359,151.7324 C1103.4609,160.9584 1106.7029,169.7844 1112.9609,176.5714 C1119.2189,183.3594 1127.7469,187.4434 1136.9719,187.8184 C1137.4429,187.8374 1137.9209,188.0004 1138.3939,188.0004 L1138.3969,188.0004 C1147.3359,188.0004 1155.8199,184.4344 1162.2879,178.2394 C1168.7739,172.0254 1172.5459,163.5694 1172.9099,154.5904 C1173.6829,135.5474 1158.8169,119.3634 1139.7739,118.5914" id="Fill-3" sketch:type="MSShapeGroup"></path>
            <path d="M1138.373,168.7109 C1129.779,168.7109 1122.789,161.7189 1122.789,153.1279 C1122.789,144.5339 1129.779,137.5439 1138.373,137.5439 C1146.966,137.5439 1153.956,144.5339 1153.956,153.1279 C1153.956,161.7189 1146.966,168.7109 1138.373,168.7109 M1138.373,129.9649 C1125.602,129.9649 1115.21,140.3569 1115.21,153.1279 C1115.21,165.8989 1125.602,176.2899 1138.373,176.2899 C1151.144,176.2899 1161.535,165.8989 1161.535,153.1279 C1161.535,140.3569 1151.144,129.9649 1138.373,129.9649" id="Fill-4" sketch:type="MSShapeGroup"></path>
        </g>
    </g>
</svg>