<?xml version="1.0" encoding="UTF-8" standalone="no"?>
<svg width="83px" height="63px" viewBox="0 0 83 63" version="1.1" xmlns="http://www.w3.org/2000/svg" xmlns:xlink="http://www.w3.org/1999/xlink" xmlns:sketch="http://www.bohemiancoding.com/sketch/ns">
    <!-- Generator: Sketch 3.4.3 (16044) - http://www.bohemiancoding.com/sketch -->
    <title>pessoas</title>
    <desc>Created with Sketch.</desc>
    <defs></defs>
    <g id="Page-1" stroke="none" stroke-width="1" fill="none" fill-rule="evenodd" sketch:type="MSPage">
        <g id="Artboard-5" sketch:type="MSArtboardGroup" transform="translate(-625.000000, -328.000000)" fill="#ED8023">
            <path d="M702,385 L682,385 L682,364.006 C682,358.849 686.558,355 691.684,355 L691.812,355 C697.009,355 702,358.849 702,364.006 L702,385 Z M676,385 L657,385 L657,364.006 C657,358.849 661.071,355 666.195,355 L666.323,355 C671.521,355 676,358.849 676,364.006 L676,385 Z M650,385 L631,385 L631,364.006 C631,358.849 635.585,355 640.709,355 L640.837,355 C646.035,355 650,358.849 650,364.006 L650,385 Z M640.993,335.217 C644.458,335.217 647.274,338.034 647.274,341.498 C647.274,344.962 644.458,347.779 640.993,347.779 C637.529,347.779 634.712,344.962 634.712,341.498 C634.712,338.034 637.529,335.217 640.993,335.217 L640.993,335.217 Z M653.737,343.609 C654.19,346.353 655.509,348.807 657.404,350.68 C655.937,351.659 654.642,352.875 653.569,354.272 C652.541,352.943 651.308,351.777 649.918,350.825 C651.894,348.935 653.271,346.424 653.737,343.609 L653.737,343.609 Z M666.48,335.217 C669.943,335.217 672.762,338.034 672.762,341.498 C672.762,344.962 669.943,347.779 666.48,347.779 C663.017,347.779 660.198,344.962 660.198,341.498 C660.198,338.034 663.017,335.217 666.48,335.217 L666.48,335.217 Z M679.224,343.609 C679.676,346.353 680.995,348.807 682.891,350.68 C681.425,351.659 680.129,352.875 679.056,354.272 C678.027,352.943 676.796,351.777 675.404,350.825 C677.38,348.935 678.759,346.424 679.224,343.609 L679.224,343.609 Z M691.967,335.217 C695.431,335.217 698.248,338.034 698.248,341.498 C698.248,344.962 695.431,347.779 691.967,347.779 C688.503,347.779 685.686,344.962 685.686,341.498 C685.686,338.034 688.503,335.217 691.967,335.217 L691.967,335.217 Z M700.953,350.825 C703.412,348.473 704.917,345.162 704.917,341.498 C704.917,334.375 699.106,328.579 691.983,328.579 C685.578,328.579 680.243,333.265 679.231,339.388 C678.221,333.265 672.889,328.579 666.484,328.579 C660.08,328.579 654.75,333.265 653.738,339.388 C652.728,333.265 647.398,328.579 640.995,328.579 C633.871,328.579 628.075,334.375 628.075,341.498 C628.075,345.088 629.657,348.338 632.029,350.68 C627.73,353.547 625,358.449 625,364.006 L625,391 L650.265,391 L656.901,391 L675.751,391 L682.389,391 L708,391 L708,364.006 C708,358.542 705.168,353.711 700.953,350.825 L700.953,350.825 Z" id="Fill-8" sketch:type="MSShapeGroup"></path>
        </g>
    </g>
</svg>